<?xml version="1.0" encoding="UTF-8"?>
<svg version="1.1" xmlns="http://www.w3.org/2000/svg" width="167" height="83">
<path d="M0 0 C2.25 -0.3125 2.25 -0.3125 5 0 C8.22911698 3.43054338 9.98473041 6.88833154 11.6875 11.25 C12.90456772 14.89288938 12.90456772 14.89288938 15 18 C17.32817964 18.36760731 19.6618385 18.70241581 22 19 C21.505 21.475 21.505 21.475 21 24 C19.68 24 18.36 24 17 24 C17.45632812 24.96421875 17.91265625 25.9284375 18.3828125 26.921875 C18.96436617 28.19754111 19.5450502 29.47360393 20.125 30.75 C20.42792969 31.38421875 20.73085938 32.0184375 21.04296875 32.671875 C23.18359806 37.45095438 23.18359806 37.45095438 22.1796875 40.453125 C21.79039063 40.96359375 21.40109375 41.4740625 21 42 C19.68 42 18.36 42 17 42 C15.82866942 39.54379149 14.66278278 37.08525083 13.5 34.625 C13.16613281 33.92632812 12.83226563 33.22765625 12.48828125 32.5078125 C10 27.2265625 10 27.2265625 10 25 C4.95426779 25.79202292 0.57751475 26.76049109 -4 29 C-6.62564275 32.77530277 -7.92267065 36.55076971 -9 41 C-10.65 40.67 -12.3 40.34 -14 40 C-12.49864473 32.05817182 -9.8520172 24.73719696 -7 17.1875 C-6.54882812 15.97384766 -6.09765625 14.76019531 -5.6328125 13.50976562 C-2.00383661 3.80923393 -2.00383661 3.80923393 0 0 Z M3 9 C2.15973604 10.76755526 1.32801278 12.53917263 0.5 14.3125 C0.0359375 15.29863281 -0.428125 16.28476562 -0.90625 17.30078125 C-2.18777472 19.97800126 -2.18777472 19.97800126 -2 23 C-0.51882199 22.71872579 0.95993249 22.42466268 2.4375 22.125 C3.67306641 21.88136719 3.67306641 21.88136719 4.93359375 21.6328125 C5.61550781 21.42398438 6.29742187 21.21515625 7 21 C8.3023998 18.98066862 8.3023998 18.98066862 7.22265625 16.6171875 C6.83980469 15.71226563 6.45695312 14.80734375 6.0625 13.875 C5.68222656 12.96492188 5.30195313 12.05484375 4.91015625 11.1171875 C4.60980469 10.41851562 4.30945313 9.71984375 4 9 C3.67 9 3.34 9 3 9 Z " fill="#FFFFFF" transform="translate(15,18)"/>
<path d="M0 0 C4.48841993 1.59771278 8.83964283 3.54426333 11 8 C11.1875 10.75 11.1875 10.75 11 13 C8.17781982 11.80600069 6.45433775 10.51364887 4.125 8.4375 C0.8639242 5.89386088 -0.94314169 5.28977559 -5 5 C-5.77528479 8.42573937 -6.11918778 11.57239245 -6.09765625 15.08203125 C-6.09443359 16.01337891 -6.09121094 16.94472656 -6.08789062 17.90429688 C-6.07951172 18.86400391 -6.07113281 19.82371094 -6.0625 20.8125 C-6.05798828 21.79154297 -6.05347656 22.77058594 -6.04882812 23.77929688 C-6.03708684 26.18626111 -6.02066419 28.59309857 -6 31 C-4.58847656 30.7834375 -4.58847656 30.7834375 -3.1484375 30.5625 C-1.90320313 30.376875 -0.65796875 30.19125 0.625 30 C1.85476562 29.814375 3.08453125 29.62875 4.3515625 29.4375 C7.6166027 29.04597484 10.71712451 28.91919076 14 29 C14 30.65 14 32.3 14 34 C8.06 34.66 2.12 35.32 -4 36 C-3.67 40.29 -3.34 44.58 -3 49 C-5.31 49 -7.62 49 -10 49 C-10 45.37 -10 41.74 -10 38 C-12.97 38.66 -15.94 39.32 -19 40 C-19.66 38.35 -20.32 36.7 -21 35 C-18.36 34.01 -15.72 33.02 -13 32 C-13.02356567 31.00987915 -13.02356567 31.00987915 -13.04760742 29.99975586 C-13.11036688 26.97909273 -13.14911983 23.9585673 -13.1875 20.9375 C-13.22520508 19.37999023 -13.22520508 19.37999023 -13.26367188 17.79101562 C-13.32128997 11.74111605 -13.07315453 7.27952188 -10 2 C-6.20991318 -0.52672455 -4.50802658 -0.44341245 0 0 Z " fill="#FFFFFF" transform="translate(153,10)"/>
<path d="M0 0 C2.7332082 2.02806545 3.3462359 3.740628 4 7 C4.1421701 8.58567839 4.24504041 10.17518632 4.31640625 11.765625 C4.35830078 12.65507813 4.40019531 13.54453125 4.44335938 14.4609375 C4.48267578 15.38132812 4.52199219 16.30171875 4.5625 17.25 C4.60568359 18.18585937 4.64886719 19.12171875 4.69335938 20.0859375 C4.7991805 22.39048641 4.90126557 24.69513839 5 27 C3.35 27 1.7 27 0 27 C-0.66 25.02 -1.32 23.04 -2 21 C-2.70125 21.61875 -3.4025 22.2375 -4.125 22.875 C-9.70907546 27.00236012 -14.13257976 27.18057242 -20.828125 26.58203125 C-23 26 -23 26 -25 23 C-25.7001218 17.04896467 -24.35149197 12.83124428 -21 8 C-15.16862558 1.74025448 -8.68807823 -1.51309228 0 0 Z M-13.97265625 9.31640625 C-16.41054347 11.34093302 -17.8575774 13.02970123 -19 16 C-19.25196129 18.70953551 -19.25196129 18.70953551 -19 21 C-16.21295604 22.7589547 -16.21295604 22.7589547 -13.03515625 22.56640625 C-8.01271473 20.01043106 -4.39299451 17.22414295 -2 12 C-1.57890716 8.70506806 -1.57890716 8.70506806 -2 6 C-7.42997848 4.36908774 -9.59723671 6.16406572 -13.97265625 9.31640625 Z " fill="#FFFFFF" transform="translate(127,32)"/>
<path d="M0 0 C1.59908203 -0.00386719 1.59908203 -0.00386719 3.23046875 -0.0078125 C5.8125 0.125 5.8125 0.125 6.8125 1.125 C6.85313832 2.79117115 6.855221 4.45888095 6.8125 6.125 C5.38357422 6.07279297 5.38357422 6.07279297 3.92578125 6.01953125 C2.67152344 5.99246094 1.41726562 5.96539062 0.125 5.9375 C-1.11636719 5.90269531 -2.35773437 5.86789063 -3.63671875 5.83203125 C-7.41690916 6.14392815 -9.24139608 6.78014178 -12.1875 9.125 C-12.5175 10.115 -12.8475 11.105 -13.1875 12.125 C-12.09050781 12.02960937 -10.99351563 11.93421875 -9.86328125 11.8359375 C-8.40890188 11.72334039 -6.9544719 11.61139558 -5.5 11.5 C-4.77876953 11.43554688 -4.05753906 11.37109375 -3.31445312 11.3046875 C0.93840254 10.99397658 3.99993571 11.15479912 7.8125 13.125 C8.125 15.3125 8.125 15.3125 7.8125 18.125 C3.63001466 23.35310667 -2.43097443 27.96642041 -9.1875 28.9375 C-10.1775 28.999375 -11.1675 29.06125 -12.1875 29.125 C-12.5175 27.805 -12.8475 26.485 -13.1875 25.125 C-12.33285156 24.71507813 -11.47820313 24.30515625 -10.59765625 23.8828125 C-9.49292969 23.34398438 -8.38820313 22.80515625 -7.25 22.25 C-5.59677734 21.44949219 -5.59677734 21.44949219 -3.91015625 20.6328125 C-1.09345489 19.40840155 -1.09345489 19.40840155 -0.1875 17.125 C-1.21230469 17.24359375 -2.23710938 17.3621875 -3.29296875 17.484375 C-4.65353465 17.61573998 -6.01421883 17.74588402 -7.375 17.875 C-8.38530273 17.99681641 -8.38530273 17.99681641 -9.41601562 18.12109375 C-13.08326911 18.4430965 -14.96368103 18.25887854 -18.15234375 16.3515625 C-20.1875 14.125 -20.1875 14.125 -20.5625 10.75 C-18.59138512 5.5534244 -15.05214817 3.56141202 -10.1875 1.125 C-6.80306772 -0.04013242 -3.56162313 -0.0086763 0 0 Z " fill="#FFFFFF" transform="translate(59.1875,31.875)"/>
<path d="M0 0 C1.67542976 0.28604898 3.34385343 0.61781233 5 1 C5.33 2.65 5.66 4.3 6 6 C6.59167969 5.72285156 7.18335937 5.44570313 7.79296875 5.16015625 C15.38174847 1.68144972 21.61795618 0.47224169 30 1 C31 2 31 2 31.0625 5.0625 C31.041875 6.031875 31.02125 7.00125 31 8 C30.32195312 7.86980469 29.64390625 7.73960938 28.9453125 7.60546875 C21.37766867 6.48394813 16.31656209 7.59400299 10 12 C8.40587716 15.18824568 8.89825265 18.62896662 8.9375 22.125 C8.94201172 22.87910156 8.94652344 23.63320313 8.95117188 24.41015625 C8.96296501 26.27347127 8.98090058 28.13674555 9 30 C7.00045254 30.04254356 4.99958364 30.04080783 3 30 C0.33638981 27.33638981 0.9692758 20.6504538 0.58789062 17.01660156 C0.37580213 15.00759812 0.15320954 12.99994712 -0.0703125 10.9921875 C-0.204375 9.73664062 -0.3384375 8.48109375 -0.4765625 7.1875 C-0.60111816 6.02605469 -0.72567383 4.86460938 -0.85400391 3.66796875 C-0.90218262 2.78753906 -0.95036133 1.90710938 -1 1 C-0.67 0.67 -0.34 0.34 0 0 Z " fill="#FFFFFF" transform="translate(70,30)"/>
</svg>
